inDegrees=no
num_controls=7
num_derivatives=13
num_iterations=220
num_multipliers=7
num_parameters=0
num_slacks=7
num_states=26
objective=0.499384
objective_accelerations=0.010754
objective_balance=0.003984
objective_effort=0.014973
objective_height=0.366725
objective_ligament=0.102949
solver_duration=2775.524082
status=Solve_Succeeded
success=true
DataType=double
version=3
OpenSimVersion=4.5
endheader
time	/jointset/ground_pelvis/pelvis_tilt/value	/jointset/ground_pelvis/pelvis_tx/value	/jointset/ground_pelvis/pelvis_ty/value	/jointset/hip_l/hip_flexion_l/value	/jointset/hip_l/hip_adduction_l/value	/jointset/hip_l/hip_rotation_l/value	/jointset/back/lumbar_extension/value	/jointset/patellofemoral_l/patellar_flexion_l/value	/jointset/knee_l/knee_flexion_l/value	/jointset/knee_l/knee_adduction_l/value	/jointset/knee_l/knee_rotation_l/value	/jointset/ankle_l/ankle_angle_l/value	/jointset/subtalar_l/subtalar_angle_l/value	/jointset/ground_pelvis/pelvis_tilt/speed	/jointset/ground_pelvis/pelvis_tx/speed	/jointset/ground_pelvis/pelvis_ty/speed	/jointset/hip_l/hip_flexion_l/speed	/jointset/hip_l/hip_adduction_l/speed	/jointset/hip_l/hip_rotation_l/speed	/jointset/back/lumbar_extension/speed	/jointset/patellofemoral_l/patellar_flexion_l/speed	/jointset/knee_l/knee_flexion_l/speed	/jointset/knee_l/knee_adduction_l/speed	/jointset/knee_l/knee_rotation_l/speed	/jointset/ankle_l/ankle_angle_l/speed	/jointset/subtalar_l/subtalar_angle_l/speed	/forceset/tau_hip_flexion_l	/forceset/tau_hip_adduction_l	/forceset/tau_hip_rotation_l	/forceset/tau_knee_flexion_l	/forceset/tau_ankle_angle_l	/forceset/tau_subtalar_angle_l	/forceset/tau_lumbar_extension	lambda_cid13_p0	lambda_cid13_p1	lambda_cid13_p2	lambda_cid13_p3	lambda_cid13_p4	lambda_cid13_p5	lambda_cid14_p0	/jointset/ground_pelvis/pelvis_tilt/accel	/jointset/ground_pelvis/pelvis_tx/accel	/jointset/ground_pelvis/pelvis_ty/accel	/jointset/hip_l/hip_flexion_l/accel	/jointset/hip_l/hip_adduction_l/accel	/jointset/hip_l/hip_rotation_l/accel	/jointset/back/lumbar_extension/accel	/jointset/patellofemoral_l/patellar_flexion_l/accel	/jointset/knee_l/knee_flexion_l/accel	/jointset/knee_l/knee_adduction_l/accel	/jointset/knee_l/knee_rotation_l/accel	/jointset/ankle_l/ankle_angle_l/accel	/jointset/subtalar_l/subtalar_angle_l/accel	gamma_cid13_p0	gamma_cid13_p1	gamma_cid13_p2	gamma_cid13_p3	gamma_cid13_p4	gamma_cid13_p5	gamma_cid14_p0
0.5	-0.01353461434837536	-0.02160961011436863	0.8992603696810516	0.4924866506636262	-0.2603518770607478	-0.2751439183901487	-0.7450145894377381	0.408735804391793	0.4087358043917967	-0.05029338388401529	-0.1744954182824632	-0.01617209796570339	0.03112133556744756	0.007581168849477866	-0.1405460340823343	-0.07035718540209811	0.4125173812462488	-0.04651094488994981	0.1264865114500914	-0.8534794295033368	0.3980624236670945	0.398062423667087	0.01662766578505776	9.041302731095763e-05	-0.01765765556588822	-0.05621311613844888	-0.2022180163721274	0.02656421320303995	-0.00748034168741519	-0.1192396964219439	0.1010485270772596	0.04177277342027808	0.2811503307327693	-12.66824283447314	-17.67319192021654	4.361511453346235	-0.4860992590054476	-709.3343765035956	-81.30619999353671	-23.76090842408471	0.07423922807249915	0.3092803366911543	0.06223702052398514	-0.7773057320850322	-0.02020366997383494	-0.1162884326937628	1.131879851682837	-0.5078771668503037	-0.5078771668503064	-0.2457255753022309	-0.0009299875340797036	0.1452271907176773	0.03589466455558349	-4.699282514842926e-10	2.637045846724589e-09	1.013710173651981e-08	-3.304756508054168e-09	7.00570014295136e-09	1.300956427858963e-09	-1.612174910842867e-09
0.51	-0.01345521554559034	-0.02299947111142938	0.8985600401879512	0.4965725598279154	-0.2608178910277194	-0.2738850258866002	-0.7534915404334489	0.4126904401686077	0.4126904401686113	-0.05013932278431031	-0.1744945415177284	-0.01634146394626389	0.03056108912917311	0.00830363942365577	-0.1374118107612372	-0.06969244752396632	0.4045992167679786	-0.04667684425414168	0.1252691798269678	-0.8418021321980527	0.3927967755692743	0.3927967755692722	0.01419977653279409	8.5149170432186e-05	-0.01621944688117251	-0.05582206822739023	-0.2065257663058949	0.0274670688080163	-0.007503505946216359	-0.1181698266068852	0.09998187350381894	0.0426174298328198	0.2856514877602079	-13.05817836931873	-17.95834130081198	4.391654590697065	-0.4766471111305158	-710.7840493398675	-81.40243342387643	-23.75125405619708	0.07200733854540599	0.3176458261042406	0.07103357894290722	-0.8088576251371058	-0.01253397118959788	-0.1278782803428112	1.201950286009889	-0.5461017431548191	-0.5461017431540017	-0.2390359919140728	-0.0002914291794961668	0.1425319462919881	0.04282356146429853	-3.659123206811152e-10	4.405514826805695e-09	1.016231906410332e-08	-3.575340871505344e-09	8.431055189432502e-09	1.252624886103471e-09	-1.458101346275976e-09
0.52	-0.01336844076377294	-0.0243575593760221	0.8978668463551293	0.5005773301835342	-0.2612851141686433	-0.2726389912499261	-0.7618484593328949	0.416590380842067	0.4165903808420623	-0.05000908365547294	-0.1744937107604455	-0.01649656499218798	0.03000517591142589	0.00905636465603215	-0.1341914875887281	-0.06893005334642525	0.3962896195121446	-0.04675277968024386	0.1239149380749987	-0.829473010250421	0.3871234029951764	0.3871234029951798	0.01186327161150397	8.121153696484019e-05	-0.01480466863871747	-0.05534647203300003	-0.2108335162396574	0.02836992441299496	-0.007526670205017984	-0.1170999567918249	0.09891521993037919	0.04346208624536424	0.2901526447876493	-13.45150023665666	-18.24331093242069	4.422241042229012	-0.477499209165225	-712.2916542339655	-81.50720409533916	-23.74003995457993	0.0802901597121554	0.3265003069735962	0.08176828040585145	-0.8555922875977856	-0.002210882355909423	-0.1436704584628506	1.262244780152316	-0.5894220621058507	-0.5894220621058508	-0.2274487091075474	-0.0006647428518054294	0.1405411022655862	0.0528043212218982	-2.544157744628758e-10	6.066794772357134e-09	1.010884622062257e-08	-3.837576076150026e-09	9.772994033653966e-09	1.178680862741559e-09	-1.301282147361805e-09
0.53	-0.01327400395145308	-0.02568304323123711	0.8971817565562329	0.5044971305927268	-0.2617526430613536	-0.2714071564343707	-0.7700789011376196	0.4204315966514667	0.4204315966514701	-0.04990173055054849	-0.1744928913644673	-0.01663764990540486	0.02945443954181126	0.009835844464024104	-0.1308936574038089	-0.06807196456191034	0.3876093428944322	-0.04673807046808717	0.1224291985659545	-0.8165154501090921	0.3810530872095129	0.3810530872095112	0.009623379113259101	8.289270874389482e-05	-0.01341898464876657	-0.05478779664785971	-0.2149364007904976	0.0292261891761618	-0.007548906571017421	-0.116148191071153	0.09793315504661172	0.0442452426766492	0.2944637907353978	-13.8164654966816	-18.50612873882104	4.448830486870126	-0.4585617911753005	-713.7082516655931	-81.58755016552661	-23.72732912700289	0.07750295058028596	0.3331674868703375	0.09022255369839509	-0.8834139495373035	0.005548874154146955	-0.1544506207610204	1.327496718881305	-0.6258368443611024	-0.6258368443618512	-0.219853137552434	0.0006198877521126242	0.1365817270155736	0.05934762644030384	-1.177196194654011e-10	7.508343496634102e-09	9.958237521489032e-09	-4.112514551110289e-09	1.104444358883558e-08	1.093040493801633e-09	-1.150724195546577e-09
0.54	-0.0131716271292062	-0.02697520016207907	0.8965057263204265	0.5083282945156067	-0.2622195774517128	-0.2701908639986326	-0.7781767703233793	0.4242101092015008	0.4242101092015046	-0.04981629509407994	-0.1744920480886597	-0.01676507804279041	0.02890967962190405	0.01064436664151916	-0.1275261027141187	-0.06711814072842792	0.3785623222495465	-0.04663387920982275	0.1208064621114783	-0.8029584864574374	0.3745827511212695	0.3745827511212629	0.007479741920233903	8.598750289739264e-05	-0.01207331347258592	-0.05415118209151137	-0.2190392853413351	0.03008245393932794	-0.007571142937012676	-0.1151964253504804	0.09695109016284403	0.0450283991079333	0.2987749366831484	-14.18530234473485	-18.76877767846241	4.475974462542146	-0.4490851638017367	-715.1904452333716	-81.67753457996021	-23.7131938823775	0.08609863361273636	0.3404452079278315	0.100915290199356	-0.9289410930324766	0.01568552686562181	-0.1710698475492507	1.382125482217463	-0.6694261226218089	-0.6694261226218098	-0.2081976480636394	-0.0003820183769268217	0.1325385395115825	0.06839215546350548	4.685695375590853e-11	8.706785337798886e-09	9.700159365037523e-09	-4.401507708121831e-09	1.223790499444118e-08	9.944594872009233e-10	-1.0070935809472e-09
0.55	-0.01306101034668394	-0.0282333572207364	0.8958397028934407	0.5120672275475371	-0.2626850236570645	-0.2689914585293014	-0.7861361484514241	0.4279220089654558	0.4279220089654646	-0.04975178658705835	-0.1744911575189853	-0.01687923500376792	0.0283716793655197	0.01148618747698573	-0.1240959277120991	-0.06607115086189234	0.3691664985696038	-0.04644106279427872	0.1190522297616095	-0.7888261895339613	0.3677363951018918	0.3677363951018908	0.005439222843205522	9.163717962510726e-05	-0.01076453807946575	-0.05343644078038192	-0.2229601553682284	0.03091042414375121	-0.007591899020079722	-0.1143099656870349	0.09600343278230709	0.04575424548446516	0.302907150395299	-14.53977970938786	-19.00945165784074	4.500072528763894	-0.4191144388213786	-716.558226078359	-81.73659666541764	-23.69771290709634	0.08430240826923918	0.3457099304175689	0.1089024836940189	-0.9535715781662576	0.0232218837682918	-0.180960811425631	1.442424239992495	-0.7013611410735201	-0.7013611410726732	-0.1993871404983573	0.0009664345618583491	0.1290784870892674	0.07487674650689966	2.174809713384707e-10	9.838926244919487e-09	9.360103248997619e-09	-4.665642770224839e-09	1.335191476842021e-08	9.070962169676052e-10	-8.568000070139314e-10
0.5600000000000001	-0.01294175963585641	-0.02945693127255782	0.8951846116948832	0.5157104686281297	-0.2631481132612879	-0.2678102675600128	-0.793951475121718	0.431563621009325	0.4315636210093318	-0.04970716489140124	-0.1744902248577715	-0.01698049792123782	0.02784119884776047	0.01237115230267788	-0.1206095013469381	-0.06493169504281847	0.3594239319820181	-0.04616255898395404	0.1171635621029438	-0.7741481949072924	0.3605252071034034	0.360525207103408	0.003502379647139063	9.440581092288867e-05	-0.009494504771263819	-0.05264723436648322	-0.22688102539512	0.03173839434817272	-0.007612655103136307	-0.1134235060235891	0.09505577540176954	0.04648009186099485	0.3070393641074514	-14.8985907769125	-19.24995011216017	4.524808881988404	-0.3976647968459182	-717.9988298036452	-81.80627778022632	-23.68097461861545	0.09472743165781332	0.3516954805561573	0.1194084807070205	-0.9982896745610645	0.0328230058217379	-0.1979569093086252	1.491265022855994	-0.7423925184439648	-0.7423925184439655	-0.1874624718712819	-0.0009582274629224529	0.1247901225279824	0.0832851760173593	3.953619221545357e-10	1.089150603118707e-08	8.92167358145164e-09	-4.899948118437609e-09	1.437058258444738e-08	8.331942303751559e-10	-6.985108818799923e-10
